<mxfile host="Electron" modified="2023-07-17T17:24:49.621Z" agent="Mozilla/5.0 (X11; Linux x86_64) AppleWebKit/537.36 (KHTML, like Gecko) draw.io/21.6.1 Chrome/112.0.5615.204 Electron/24.6.1 Safari/537.36" etag="p4zYKHMH7RTpYEJHSfHB" version="21.6.1" type="device">
  <diagram name="PÃ¡gina-1" id="SKQRO-EnRAf3LMEz_fkR">
    <mxGraphModel dx="654" dy="401" grid="1" gridSize="10" guides="1" tooltips="1" connect="1" arrows="1" fold="1" page="1" pageScale="1" pageWidth="827" pageHeight="1169" math="0" shadow="0">
      <root>
        <mxCell id="0" />
        <mxCell id="1" parent="0" />
        <mxCell id="uWtEvoABwypYLbfiV7SP-3" value="" style="rounded=0;whiteSpace=wrap;html=1;" vertex="1" parent="1">
          <mxGeometry x="160" y="220" width="250" height="150" as="geometry" />
        </mxCell>
        <mxCell id="uWtEvoABwypYLbfiV7SP-4" value="" style="rounded=0;whiteSpace=wrap;html=1;" vertex="1" parent="1">
          <mxGeometry x="160" y="220" width="25" height="15" as="geometry" />
        </mxCell>
        <mxCell id="uWtEvoABwypYLbfiV7SP-5" value="" style="rounded=0;whiteSpace=wrap;html=1;" vertex="1" parent="1">
          <mxGeometry x="160" y="235" width="25" height="15" as="geometry" />
        </mxCell>
        <mxCell id="uWtEvoABwypYLbfiV7SP-6" value="" style="rounded=0;whiteSpace=wrap;html=1;" vertex="1" parent="1">
          <mxGeometry x="160" y="250" width="25" height="15" as="geometry" />
        </mxCell>
        <mxCell id="uWtEvoABwypYLbfiV7SP-7" value="" style="rounded=0;whiteSpace=wrap;html=1;" vertex="1" parent="1">
          <mxGeometry x="160" y="265" width="25" height="15" as="geometry" />
        </mxCell>
        <mxCell id="uWtEvoABwypYLbfiV7SP-8" value="" style="rounded=0;whiteSpace=wrap;html=1;" vertex="1" parent="1">
          <mxGeometry x="160" y="280" width="25" height="15" as="geometry" />
        </mxCell>
        <mxCell id="uWtEvoABwypYLbfiV7SP-9" value="" style="rounded=0;whiteSpace=wrap;html=1;" vertex="1" parent="1">
          <mxGeometry x="160" y="295" width="25" height="15" as="geometry" />
        </mxCell>
        <mxCell id="uWtEvoABwypYLbfiV7SP-10" value="" style="rounded=0;whiteSpace=wrap;html=1;" vertex="1" parent="1">
          <mxGeometry x="160" y="310" width="25" height="15" as="geometry" />
        </mxCell>
        <mxCell id="uWtEvoABwypYLbfiV7SP-11" value="" style="rounded=0;whiteSpace=wrap;html=1;" vertex="1" parent="1">
          <mxGeometry x="160" y="325" width="25" height="15" as="geometry" />
        </mxCell>
        <mxCell id="uWtEvoABwypYLbfiV7SP-12" value="" style="rounded=0;whiteSpace=wrap;html=1;" vertex="1" parent="1">
          <mxGeometry x="160" y="340" width="25" height="15" as="geometry" />
        </mxCell>
        <mxCell id="uWtEvoABwypYLbfiV7SP-13" value="" style="rounded=0;whiteSpace=wrap;html=1;" vertex="1" parent="1">
          <mxGeometry x="160" y="355" width="25" height="15" as="geometry" />
        </mxCell>
        <mxCell id="uWtEvoABwypYLbfiV7SP-14" value="" style="rounded=0;whiteSpace=wrap;html=1;" vertex="1" parent="1">
          <mxGeometry x="185" y="220" width="25" height="15" as="geometry" />
        </mxCell>
        <mxCell id="uWtEvoABwypYLbfiV7SP-15" value="" style="rounded=0;whiteSpace=wrap;html=1;" vertex="1" parent="1">
          <mxGeometry x="185" y="235" width="25" height="15" as="geometry" />
        </mxCell>
        <mxCell id="uWtEvoABwypYLbfiV7SP-16" value="" style="rounded=0;whiteSpace=wrap;html=1;" vertex="1" parent="1">
          <mxGeometry x="185" y="250" width="25" height="15" as="geometry" />
        </mxCell>
        <mxCell id="uWtEvoABwypYLbfiV7SP-17" value="" style="rounded=0;whiteSpace=wrap;html=1;" vertex="1" parent="1">
          <mxGeometry x="185" y="265" width="25" height="15" as="geometry" />
        </mxCell>
        <mxCell id="uWtEvoABwypYLbfiV7SP-18" value="" style="rounded=0;whiteSpace=wrap;html=1;" vertex="1" parent="1">
          <mxGeometry x="185" y="280" width="25" height="15" as="geometry" />
        </mxCell>
        <mxCell id="uWtEvoABwypYLbfiV7SP-19" value="" style="rounded=0;whiteSpace=wrap;html=1;" vertex="1" parent="1">
          <mxGeometry x="185" y="295" width="25" height="15" as="geometry" />
        </mxCell>
        <mxCell id="uWtEvoABwypYLbfiV7SP-20" value="" style="rounded=0;whiteSpace=wrap;html=1;" vertex="1" parent="1">
          <mxGeometry x="185" y="310" width="25" height="15" as="geometry" />
        </mxCell>
        <mxCell id="uWtEvoABwypYLbfiV7SP-21" value="" style="rounded=0;whiteSpace=wrap;html=1;" vertex="1" parent="1">
          <mxGeometry x="185" y="325" width="25" height="15" as="geometry" />
        </mxCell>
        <mxCell id="uWtEvoABwypYLbfiV7SP-22" value="" style="rounded=0;whiteSpace=wrap;html=1;" vertex="1" parent="1">
          <mxGeometry x="185" y="340" width="25" height="15" as="geometry" />
        </mxCell>
        <mxCell id="uWtEvoABwypYLbfiV7SP-23" value="" style="rounded=0;whiteSpace=wrap;html=1;" vertex="1" parent="1">
          <mxGeometry x="185" y="355" width="25" height="15" as="geometry" />
        </mxCell>
        <mxCell id="uWtEvoABwypYLbfiV7SP-24" value="" style="rounded=0;whiteSpace=wrap;html=1;" vertex="1" parent="1">
          <mxGeometry x="210" y="220" width="25" height="15" as="geometry" />
        </mxCell>
        <mxCell id="uWtEvoABwypYLbfiV7SP-25" value="" style="rounded=0;whiteSpace=wrap;html=1;" vertex="1" parent="1">
          <mxGeometry x="210" y="235" width="25" height="15" as="geometry" />
        </mxCell>
        <mxCell id="uWtEvoABwypYLbfiV7SP-26" value="" style="rounded=0;whiteSpace=wrap;html=1;" vertex="1" parent="1">
          <mxGeometry x="210" y="250" width="25" height="15" as="geometry" />
        </mxCell>
        <mxCell id="uWtEvoABwypYLbfiV7SP-27" value="" style="rounded=0;whiteSpace=wrap;html=1;" vertex="1" parent="1">
          <mxGeometry x="210" y="265" width="25" height="15" as="geometry" />
        </mxCell>
        <mxCell id="uWtEvoABwypYLbfiV7SP-28" value="" style="rounded=0;whiteSpace=wrap;html=1;" vertex="1" parent="1">
          <mxGeometry x="210" y="280" width="25" height="15" as="geometry" />
        </mxCell>
        <mxCell id="uWtEvoABwypYLbfiV7SP-29" value="" style="rounded=0;whiteSpace=wrap;html=1;" vertex="1" parent="1">
          <mxGeometry x="210" y="295" width="25" height="15" as="geometry" />
        </mxCell>
        <mxCell id="uWtEvoABwypYLbfiV7SP-30" value="" style="rounded=0;whiteSpace=wrap;html=1;" vertex="1" parent="1">
          <mxGeometry x="210" y="310" width="25" height="15" as="geometry" />
        </mxCell>
        <mxCell id="uWtEvoABwypYLbfiV7SP-31" value="" style="rounded=0;whiteSpace=wrap;html=1;" vertex="1" parent="1">
          <mxGeometry x="210" y="325" width="25" height="15" as="geometry" />
        </mxCell>
        <mxCell id="uWtEvoABwypYLbfiV7SP-32" value="" style="rounded=0;whiteSpace=wrap;html=1;" vertex="1" parent="1">
          <mxGeometry x="210" y="340" width="25" height="15" as="geometry" />
        </mxCell>
        <mxCell id="uWtEvoABwypYLbfiV7SP-33" value="" style="rounded=0;whiteSpace=wrap;html=1;" vertex="1" parent="1">
          <mxGeometry x="210" y="355" width="25" height="15" as="geometry" />
        </mxCell>
        <mxCell id="uWtEvoABwypYLbfiV7SP-34" value="" style="rounded=0;whiteSpace=wrap;html=1;" vertex="1" parent="1">
          <mxGeometry x="235" y="220" width="25" height="15" as="geometry" />
        </mxCell>
        <mxCell id="uWtEvoABwypYLbfiV7SP-35" value="" style="rounded=0;whiteSpace=wrap;html=1;" vertex="1" parent="1">
          <mxGeometry x="235" y="235" width="25" height="15" as="geometry" />
        </mxCell>
        <mxCell id="uWtEvoABwypYLbfiV7SP-36" value="" style="rounded=0;whiteSpace=wrap;html=1;" vertex="1" parent="1">
          <mxGeometry x="235" y="250" width="25" height="15" as="geometry" />
        </mxCell>
        <mxCell id="uWtEvoABwypYLbfiV7SP-37" value="" style="rounded=0;whiteSpace=wrap;html=1;" vertex="1" parent="1">
          <mxGeometry x="235" y="265" width="25" height="15" as="geometry" />
        </mxCell>
        <mxCell id="uWtEvoABwypYLbfiV7SP-38" value="" style="rounded=0;whiteSpace=wrap;html=1;" vertex="1" parent="1">
          <mxGeometry x="235" y="280" width="25" height="15" as="geometry" />
        </mxCell>
        <mxCell id="uWtEvoABwypYLbfiV7SP-39" value="" style="rounded=0;whiteSpace=wrap;html=1;" vertex="1" parent="1">
          <mxGeometry x="235" y="295" width="25" height="15" as="geometry" />
        </mxCell>
        <mxCell id="uWtEvoABwypYLbfiV7SP-40" value="" style="rounded=0;whiteSpace=wrap;html=1;" vertex="1" parent="1">
          <mxGeometry x="235" y="310" width="25" height="15" as="geometry" />
        </mxCell>
        <mxCell id="uWtEvoABwypYLbfiV7SP-41" value="" style="rounded=0;whiteSpace=wrap;html=1;" vertex="1" parent="1">
          <mxGeometry x="235" y="325" width="25" height="15" as="geometry" />
        </mxCell>
        <mxCell id="uWtEvoABwypYLbfiV7SP-42" value="" style="rounded=0;whiteSpace=wrap;html=1;" vertex="1" parent="1">
          <mxGeometry x="235" y="340" width="25" height="15" as="geometry" />
        </mxCell>
        <mxCell id="uWtEvoABwypYLbfiV7SP-43" value="" style="rounded=0;whiteSpace=wrap;html=1;" vertex="1" parent="1">
          <mxGeometry x="235" y="355" width="25" height="15" as="geometry" />
        </mxCell>
        <mxCell id="uWtEvoABwypYLbfiV7SP-44" value="" style="rounded=0;whiteSpace=wrap;html=1;" vertex="1" parent="1">
          <mxGeometry x="260" y="220" width="25" height="15" as="geometry" />
        </mxCell>
        <mxCell id="uWtEvoABwypYLbfiV7SP-45" value="" style="rounded=0;whiteSpace=wrap;html=1;" vertex="1" parent="1">
          <mxGeometry x="260" y="235" width="25" height="15" as="geometry" />
        </mxCell>
        <mxCell id="uWtEvoABwypYLbfiV7SP-46" value="" style="rounded=0;whiteSpace=wrap;html=1;" vertex="1" parent="1">
          <mxGeometry x="260" y="250" width="25" height="15" as="geometry" />
        </mxCell>
        <mxCell id="uWtEvoABwypYLbfiV7SP-47" value="" style="rounded=0;whiteSpace=wrap;html=1;" vertex="1" parent="1">
          <mxGeometry x="260" y="265" width="25" height="15" as="geometry" />
        </mxCell>
        <mxCell id="uWtEvoABwypYLbfiV7SP-48" value="" style="rounded=0;whiteSpace=wrap;html=1;" vertex="1" parent="1">
          <mxGeometry x="260" y="280" width="25" height="15" as="geometry" />
        </mxCell>
        <mxCell id="uWtEvoABwypYLbfiV7SP-49" value="" style="rounded=0;whiteSpace=wrap;html=1;" vertex="1" parent="1">
          <mxGeometry x="260" y="295" width="25" height="15" as="geometry" />
        </mxCell>
        <mxCell id="uWtEvoABwypYLbfiV7SP-50" value="" style="rounded=0;whiteSpace=wrap;html=1;" vertex="1" parent="1">
          <mxGeometry x="260" y="310" width="25" height="15" as="geometry" />
        </mxCell>
        <mxCell id="uWtEvoABwypYLbfiV7SP-51" value="" style="rounded=0;whiteSpace=wrap;html=1;" vertex="1" parent="1">
          <mxGeometry x="260" y="325" width="25" height="15" as="geometry" />
        </mxCell>
        <mxCell id="uWtEvoABwypYLbfiV7SP-52" value="" style="rounded=0;whiteSpace=wrap;html=1;" vertex="1" parent="1">
          <mxGeometry x="260" y="340" width="25" height="15" as="geometry" />
        </mxCell>
        <mxCell id="uWtEvoABwypYLbfiV7SP-53" value="" style="rounded=0;whiteSpace=wrap;html=1;" vertex="1" parent="1">
          <mxGeometry x="260" y="355" width="25" height="15" as="geometry" />
        </mxCell>
        <mxCell id="uWtEvoABwypYLbfiV7SP-54" value="" style="rounded=0;whiteSpace=wrap;html=1;" vertex="1" parent="1">
          <mxGeometry x="285" y="220" width="25" height="15" as="geometry" />
        </mxCell>
        <mxCell id="uWtEvoABwypYLbfiV7SP-55" value="" style="rounded=0;whiteSpace=wrap;html=1;" vertex="1" parent="1">
          <mxGeometry x="285" y="235" width="25" height="15" as="geometry" />
        </mxCell>
        <mxCell id="uWtEvoABwypYLbfiV7SP-56" value="" style="rounded=0;whiteSpace=wrap;html=1;" vertex="1" parent="1">
          <mxGeometry x="285" y="250" width="25" height="15" as="geometry" />
        </mxCell>
        <mxCell id="uWtEvoABwypYLbfiV7SP-57" value="" style="rounded=0;whiteSpace=wrap;html=1;" vertex="1" parent="1">
          <mxGeometry x="285" y="265" width="25" height="15" as="geometry" />
        </mxCell>
        <mxCell id="uWtEvoABwypYLbfiV7SP-58" value="" style="rounded=0;whiteSpace=wrap;html=1;" vertex="1" parent="1">
          <mxGeometry x="285" y="280" width="25" height="15" as="geometry" />
        </mxCell>
        <mxCell id="uWtEvoABwypYLbfiV7SP-59" value="" style="rounded=0;whiteSpace=wrap;html=1;" vertex="1" parent="1">
          <mxGeometry x="285" y="295" width="25" height="15" as="geometry" />
        </mxCell>
        <mxCell id="uWtEvoABwypYLbfiV7SP-60" value="" style="rounded=0;whiteSpace=wrap;html=1;" vertex="1" parent="1">
          <mxGeometry x="285" y="310" width="25" height="15" as="geometry" />
        </mxCell>
        <mxCell id="uWtEvoABwypYLbfiV7SP-61" value="" style="rounded=0;whiteSpace=wrap;html=1;" vertex="1" parent="1">
          <mxGeometry x="285" y="325" width="25" height="15" as="geometry" />
        </mxCell>
        <mxCell id="uWtEvoABwypYLbfiV7SP-62" value="" style="rounded=0;whiteSpace=wrap;html=1;" vertex="1" parent="1">
          <mxGeometry x="285" y="340" width="25" height="15" as="geometry" />
        </mxCell>
        <mxCell id="uWtEvoABwypYLbfiV7SP-63" value="" style="rounded=0;whiteSpace=wrap;html=1;" vertex="1" parent="1">
          <mxGeometry x="285" y="355" width="25" height="15" as="geometry" />
        </mxCell>
        <mxCell id="uWtEvoABwypYLbfiV7SP-64" value="" style="rounded=0;whiteSpace=wrap;html=1;" vertex="1" parent="1">
          <mxGeometry x="310" y="220" width="25" height="15" as="geometry" />
        </mxCell>
        <mxCell id="uWtEvoABwypYLbfiV7SP-65" value="" style="rounded=0;whiteSpace=wrap;html=1;" vertex="1" parent="1">
          <mxGeometry x="310" y="235" width="25" height="15" as="geometry" />
        </mxCell>
        <mxCell id="uWtEvoABwypYLbfiV7SP-66" value="" style="rounded=0;whiteSpace=wrap;html=1;" vertex="1" parent="1">
          <mxGeometry x="310" y="250" width="25" height="15" as="geometry" />
        </mxCell>
        <mxCell id="uWtEvoABwypYLbfiV7SP-67" value="" style="rounded=0;whiteSpace=wrap;html=1;" vertex="1" parent="1">
          <mxGeometry x="310" y="265" width="25" height="15" as="geometry" />
        </mxCell>
        <mxCell id="uWtEvoABwypYLbfiV7SP-68" value="" style="rounded=0;whiteSpace=wrap;html=1;" vertex="1" parent="1">
          <mxGeometry x="310" y="280" width="25" height="15" as="geometry" />
        </mxCell>
        <mxCell id="uWtEvoABwypYLbfiV7SP-69" value="" style="rounded=0;whiteSpace=wrap;html=1;" vertex="1" parent="1">
          <mxGeometry x="310" y="295" width="25" height="15" as="geometry" />
        </mxCell>
        <mxCell id="uWtEvoABwypYLbfiV7SP-70" value="" style="rounded=0;whiteSpace=wrap;html=1;" vertex="1" parent="1">
          <mxGeometry x="310" y="310" width="25" height="15" as="geometry" />
        </mxCell>
        <mxCell id="uWtEvoABwypYLbfiV7SP-71" value="" style="rounded=0;whiteSpace=wrap;html=1;" vertex="1" parent="1">
          <mxGeometry x="310" y="325" width="25" height="15" as="geometry" />
        </mxCell>
        <mxCell id="uWtEvoABwypYLbfiV7SP-72" value="" style="rounded=0;whiteSpace=wrap;html=1;" vertex="1" parent="1">
          <mxGeometry x="310" y="340" width="25" height="15" as="geometry" />
        </mxCell>
        <mxCell id="uWtEvoABwypYLbfiV7SP-73" value="" style="rounded=0;whiteSpace=wrap;html=1;" vertex="1" parent="1">
          <mxGeometry x="310" y="355" width="25" height="15" as="geometry" />
        </mxCell>
        <mxCell id="uWtEvoABwypYLbfiV7SP-74" value="" style="rounded=0;whiteSpace=wrap;html=1;" vertex="1" parent="1">
          <mxGeometry x="335" y="220" width="25" height="15" as="geometry" />
        </mxCell>
        <mxCell id="uWtEvoABwypYLbfiV7SP-75" value="" style="rounded=0;whiteSpace=wrap;html=1;" vertex="1" parent="1">
          <mxGeometry x="335" y="235" width="25" height="15" as="geometry" />
        </mxCell>
        <mxCell id="uWtEvoABwypYLbfiV7SP-76" value="" style="rounded=0;whiteSpace=wrap;html=1;" vertex="1" parent="1">
          <mxGeometry x="335" y="250" width="25" height="15" as="geometry" />
        </mxCell>
        <mxCell id="uWtEvoABwypYLbfiV7SP-77" value="" style="rounded=0;whiteSpace=wrap;html=1;" vertex="1" parent="1">
          <mxGeometry x="335" y="265" width="25" height="15" as="geometry" />
        </mxCell>
        <mxCell id="uWtEvoABwypYLbfiV7SP-78" value="" style="rounded=0;whiteSpace=wrap;html=1;" vertex="1" parent="1">
          <mxGeometry x="335" y="280" width="25" height="15" as="geometry" />
        </mxCell>
        <mxCell id="uWtEvoABwypYLbfiV7SP-79" value="" style="rounded=0;whiteSpace=wrap;html=1;" vertex="1" parent="1">
          <mxGeometry x="335" y="295" width="25" height="15" as="geometry" />
        </mxCell>
        <mxCell id="uWtEvoABwypYLbfiV7SP-80" value="" style="rounded=0;whiteSpace=wrap;html=1;" vertex="1" parent="1">
          <mxGeometry x="335" y="310" width="25" height="15" as="geometry" />
        </mxCell>
        <mxCell id="uWtEvoABwypYLbfiV7SP-81" value="" style="rounded=0;whiteSpace=wrap;html=1;" vertex="1" parent="1">
          <mxGeometry x="335" y="325" width="25" height="15" as="geometry" />
        </mxCell>
        <mxCell id="uWtEvoABwypYLbfiV7SP-82" value="" style="rounded=0;whiteSpace=wrap;html=1;" vertex="1" parent="1">
          <mxGeometry x="335" y="340" width="25" height="15" as="geometry" />
        </mxCell>
        <mxCell id="uWtEvoABwypYLbfiV7SP-83" value="" style="rounded=0;whiteSpace=wrap;html=1;" vertex="1" parent="1">
          <mxGeometry x="335" y="355" width="25" height="15" as="geometry" />
        </mxCell>
        <mxCell id="uWtEvoABwypYLbfiV7SP-84" value="" style="rounded=0;whiteSpace=wrap;html=1;" vertex="1" parent="1">
          <mxGeometry x="360" y="220" width="25" height="15" as="geometry" />
        </mxCell>
        <mxCell id="uWtEvoABwypYLbfiV7SP-85" value="" style="rounded=0;whiteSpace=wrap;html=1;" vertex="1" parent="1">
          <mxGeometry x="360" y="235" width="25" height="15" as="geometry" />
        </mxCell>
        <mxCell id="uWtEvoABwypYLbfiV7SP-86" value="" style="rounded=0;whiteSpace=wrap;html=1;" vertex="1" parent="1">
          <mxGeometry x="360" y="250" width="25" height="15" as="geometry" />
        </mxCell>
        <mxCell id="uWtEvoABwypYLbfiV7SP-87" value="" style="rounded=0;whiteSpace=wrap;html=1;" vertex="1" parent="1">
          <mxGeometry x="360" y="265" width="25" height="15" as="geometry" />
        </mxCell>
        <mxCell id="uWtEvoABwypYLbfiV7SP-88" value="" style="rounded=0;whiteSpace=wrap;html=1;" vertex="1" parent="1">
          <mxGeometry x="360" y="280" width="25" height="15" as="geometry" />
        </mxCell>
        <mxCell id="uWtEvoABwypYLbfiV7SP-89" value="" style="rounded=0;whiteSpace=wrap;html=1;" vertex="1" parent="1">
          <mxGeometry x="360" y="295" width="25" height="15" as="geometry" />
        </mxCell>
        <mxCell id="uWtEvoABwypYLbfiV7SP-90" value="" style="rounded=0;whiteSpace=wrap;html=1;" vertex="1" parent="1">
          <mxGeometry x="360" y="310" width="25" height="15" as="geometry" />
        </mxCell>
        <mxCell id="uWtEvoABwypYLbfiV7SP-91" value="" style="rounded=0;whiteSpace=wrap;html=1;" vertex="1" parent="1">
          <mxGeometry x="360" y="325" width="25" height="15" as="geometry" />
        </mxCell>
        <mxCell id="uWtEvoABwypYLbfiV7SP-92" value="" style="rounded=0;whiteSpace=wrap;html=1;" vertex="1" parent="1">
          <mxGeometry x="360" y="340" width="25" height="15" as="geometry" />
        </mxCell>
        <mxCell id="uWtEvoABwypYLbfiV7SP-93" value="" style="rounded=0;whiteSpace=wrap;html=1;" vertex="1" parent="1">
          <mxGeometry x="360" y="355" width="25" height="15" as="geometry" />
        </mxCell>
        <mxCell id="uWtEvoABwypYLbfiV7SP-94" value="" style="rounded=0;whiteSpace=wrap;html=1;" vertex="1" parent="1">
          <mxGeometry x="385" y="220" width="25" height="15" as="geometry" />
        </mxCell>
        <mxCell id="uWtEvoABwypYLbfiV7SP-95" value="" style="rounded=0;whiteSpace=wrap;html=1;" vertex="1" parent="1">
          <mxGeometry x="385" y="235" width="25" height="15" as="geometry" />
        </mxCell>
        <mxCell id="uWtEvoABwypYLbfiV7SP-96" value="" style="rounded=0;whiteSpace=wrap;html=1;" vertex="1" parent="1">
          <mxGeometry x="385" y="250" width="25" height="15" as="geometry" />
        </mxCell>
        <mxCell id="uWtEvoABwypYLbfiV7SP-97" value="" style="rounded=0;whiteSpace=wrap;html=1;" vertex="1" parent="1">
          <mxGeometry x="385" y="265" width="25" height="15" as="geometry" />
        </mxCell>
        <mxCell id="uWtEvoABwypYLbfiV7SP-98" value="" style="rounded=0;whiteSpace=wrap;html=1;" vertex="1" parent="1">
          <mxGeometry x="385" y="280" width="25" height="15" as="geometry" />
        </mxCell>
        <mxCell id="uWtEvoABwypYLbfiV7SP-99" value="" style="rounded=0;whiteSpace=wrap;html=1;" vertex="1" parent="1">
          <mxGeometry x="385" y="295" width="25" height="15" as="geometry" />
        </mxCell>
        <mxCell id="uWtEvoABwypYLbfiV7SP-100" value="" style="rounded=0;whiteSpace=wrap;html=1;" vertex="1" parent="1">
          <mxGeometry x="385" y="310" width="25" height="15" as="geometry" />
        </mxCell>
        <mxCell id="uWtEvoABwypYLbfiV7SP-101" value="" style="rounded=0;whiteSpace=wrap;html=1;" vertex="1" parent="1">
          <mxGeometry x="385" y="325" width="25" height="15" as="geometry" />
        </mxCell>
        <mxCell id="uWtEvoABwypYLbfiV7SP-102" value="" style="rounded=0;whiteSpace=wrap;html=1;" vertex="1" parent="1">
          <mxGeometry x="385" y="340" width="25" height="15" as="geometry" />
        </mxCell>
        <mxCell id="uWtEvoABwypYLbfiV7SP-103" value="" style="rounded=0;whiteSpace=wrap;html=1;" vertex="1" parent="1">
          <mxGeometry x="385" y="355" width="25" height="15" as="geometry" />
        </mxCell>
        <mxCell id="uWtEvoABwypYLbfiV7SP-105" value="&lt;font style=&quot;font-size: 10px;&quot;&gt;X axis&lt;/font&gt;" style="endArrow=classic;startArrow=classic;html=1;rounded=0;" edge="1" parent="1">
          <mxGeometry x="-0.04" y="10" width="50" height="50" relative="1" as="geometry">
            <mxPoint x="160" y="390" as="sourcePoint" />
            <mxPoint x="410" y="390" as="targetPoint" />
            <mxPoint as="offset" />
          </mxGeometry>
        </mxCell>
        <mxCell id="uWtEvoABwypYLbfiV7SP-106" value="&lt;font style=&quot;font-size: 10px;&quot;&gt;Y axis&lt;/font&gt;" style="endArrow=classic;startArrow=classic;html=1;rounded=0;" edge="1" parent="1">
          <mxGeometry x="0.0667" y="20" width="50" height="50" relative="1" as="geometry">
            <mxPoint x="130" y="375" as="sourcePoint" />
            <mxPoint x="130" y="225" as="targetPoint" />
            <mxPoint as="offset" />
          </mxGeometry>
        </mxCell>
      </root>
    </mxGraphModel>
  </diagram>
</mxfile>
